<?xml version="1.0" encoding="UTF-8"?>
<svg width="27px" height="41px" viewBox="0 0 27 41" version="1.1" xmlns="http://www.w3.org/2000/svg" xmlns:xlink="http://www.w3.org/1999/xlink">
    <!-- Generator: Sketch 55.2 (78181) - https://sketchapp.com -->
    <title>Group 3 Copy 9</title>
    <desc>Created with Sketch.</desc>
    <g id="Page-1" stroke="none" stroke-width="1" fill="none" fill-rule="evenodd">
        <g id="F--HOME-nueva-propuesta-Copy" transform="translate(-247.000000, -5682.000000)" fill="#FFFFFF">
            <g id="Group-3-Copy-9" transform="translate(247.000000, 5682.000000)">
                <g id="LOGO-RED" transform="translate(2.000000, 0.000000)">
                    <path d="M0.105294637,18 C0.0366656089,16.9382929 0.0026693162,16.1871811 0.00330575874,15.7466645 C0.00408690208,15.2059925 -0.00450838657,14.7633409 0.00330575874,14.3586858 C0.0206698565,13.459487 0.0870693727,12.8345276 0.202504307,12.4838074 C0.44699573,11.6092005 0.614100864,11.0366314 0.70381971,10.7661 C1.94025895,7.03783571 4.59665537,4.09863411 7.54644119,3.38774552 C10.8172918,2.59948138 16.6351447,1.47023287 25,0 C24.871488,3.27013315 23.6391289,5.2210963 21.3029229,5.85288944 C17.7986137,6.80057916 8.01325392,8.1004103 6.02040524,9.20979354 C5.72718069,9.37302641 4.06493659,10.3745059 3.66293719,10.7661 C2.86683902,11.5415922 1.83909467,12.8626684 0.70381971,15.7466645 C0.561046772,16.1093577 0.361538414,16.8604696 0.105294637,18 Z" id="Path-3-Copy-3"></path>
                </g>
                <path d="M0,41 C1.17377253,40.5379935 1.93698999,39.1687317 2.28965239,36.8922143 C2.50018215,35.5331961 2.58869479,33.018082 2.54786359,29.5755059 C2.52948631,28.0260736 2.52948631,25.1612663 2.54786359,20.9810841 C3.49608271,15.4506927 6.21156454,12.0923819 10.6943091,10.9061518 C11.8681192,10.5955365 12.7301161,10.5768901 13.8256015,10.4347912 C15.292733,10.2444848 16.9700065,9.97004501 18.3784175,9.79070335 C19.4158367,9.65860235 20.9563642,9.39503457 23,9 C22.7017368,11.3950295 21.653377,12.7850802 19.8549206,13.1701523 C18.0564641,13.5552244 15.2714906,13.9666216 11.5,14.4043438 C9.3535926,15.1586695 7.97101681,15.7957467 7.35227262,16.3155755 C5.83304556,17.5919314 5.03659236,19.270296 4.76961056,20.9810841 C4.76961056,24.367535 4.76961056,26.8746061 4.76961056,28.5022973 C4.76961056,29.7457471 4.76961056,31.909505 4.76961056,34.993571 C4.7885761,36.7026829 4.68721294,37.7887297 4.4655211,38.2517116 C4.00280099,39.2180574 3.71844095,39.3318543 3.27724432,39.742965 C2.51897794,40.449524 1.42656317,40.8685356 0,41 Z" id="Path-12-Copy-3"></path>
                <path d="M4,40 C5.02782712,39.3060899 5.74056269,38.1454841 6.13820673,36.5181827 C6.53585077,34.8908813 6.64658636,29.5743423 6.47041351,20.5685658 C6.66815156,18.5675454 7.84870366,17.1295429 10.0120698,16.2545582 C11.1519006,15.7935478 12.3864403,15.789092 13.8032663,15.5816968 C14.6514456,15.4575402 16.0499888,15.2636413 17.9988958,15 C18.0366253,16.833593 17.1074769,18.0676534 15.2114508,18.7021811 C14.4007669,18.9734861 13.4678868,19.1231157 12.9422911,19.2375175 C12.8838736,19.2502327 12.6417685,19.2243736 12.5794044,19.2375175 C12.287112,19.2991213 11.4313338,19.4406904 10.0120698,19.6622247 C9.32419171,20.0981627 8.98025267,20.7142448 8.98025267,21.5104711 C8.98025267,22.3066973 8.98025267,26.8195521 8.98025267,35.0490354 C8.82897385,36.6460548 8.31286992,37.802621 7.43194088,38.5187342 C6.55101184,39.2348474 5.40703154,39.7286026 4,40 Z" id="Path-4-Copy-3"></path>
            </g>
        </g>
    </g>
</svg>