<?xml version="1.0" encoding="UTF-8"?>
<svg width="56px" height="40px" viewBox="0 0 56 40" version="1.1" xmlns="http://www.w3.org/2000/svg" xmlns:xlink="http://www.w3.org/1999/xlink">
    <!-- Generator: Sketch 55.2 (78181) - https://sketchapp.com -->
    <title>icons8-visible</title>
    <desc>Created with Sketch.</desc>
    <g id="Page-1" stroke="none" stroke-width="1" fill="none" fill-rule="evenodd">
        <g id="F--HOME-nueva-propuesta-Copy" transform="translate(-1142.000000, -1830.000000)" fill="#00FFFF" fill-rule="nonzero">
            <g id="icons8-visible" transform="translate(1142.000000, 1830.000000)">
                <path d="M28.0001362,0 C14.1058237,0 4.49430903,11.7480467 1.00449541,16.80013 C0.843847543,17.034505 0.703708323,17.2786458 0.58065906,17.5260417 C0.58065906,17.5325525 0.577240368,17.5358075 0.573822552,17.5423175 C-0.314866573,19.3554692 -0.171309537,21.4941408 1.00449541,23.19987 C4.49430903,28.2519533 14.1058237,40 28.0001362,40 C41.8944486,40 51.5059633,28.2519533 54.9923591,23.19987 C56.1715819,21.4941408 56.3151389,19.3522133 55.4264498,17.5390625 C55.423032,17.5358075 55.4196141,17.5325525 55.4161955,17.5260417 C55.2965649,17.2786458 55.1564248,17.034505 54.9923591,16.80013 C51.5059633,11.7480467 41.8944486,0 28.0001362,0 Z M28.0001362,1.66666667 C38.0081429,1.66666667 45.7260666,8.27474 50.2823072,13.5319008 C44.3383439,9.48242167 36.606749,5.83333333 28.0001362,5.83333333 C19.3935242,5.83333333 11.6619284,9.48242167 5.71796515,13.5319008 C10.2742066,8.27474 17.9921294,1.66666667 28.0001362,1.66666667 Z M28.0001362,7.5 C30.2833836,7.5 32.5016882,7.78645833 34.6447964,8.26497417 C39.183947,10.6022133 42.0004079,15.0846358 42.0004079,20 C42.0004079,27.3502608 35.7180598,33.3333333 28.0001362,33.3333333 C20.2822134,33.3333333 13.9998644,27.3502608 13.9998644,20 C13.9998644,15.1074217 16.806071,10.6152342 21.3281317,8.277995 C21.3281317,8.27474 21.3315495,8.27148417 21.3349682,8.26822917 C23.484912,7.78645833 25.7100531,7.5 28.0001362,7.5 Z M27.7711276,8.33007833 C26.2432666,8.35612 24.725659,8.65885417 23.2866655,9.23177083 C22.8389036,9.4075525 22.6304028,9.89583333 22.818395,10.3222658 C22.9551164,10.6412758 23.2798299,10.8333333 23.6250512,10.8333333 C23.7378462,10.8333333 23.850642,10.8138025 23.9634369,10.7682292 C25.935643,9.98697917 28.0753334,9.79166667 30.1569165,10.2115883 C30.6251871,10.30599 31.0934577,10.0162758 31.1959992,9.5670575 C31.295122,9.11783833 30.9909171,8.67513 30.5192278,8.58072917 C29.6100309,8.3984375 28.687161,8.3138025 27.7711276,8.33007833 Z M16.5702268,9.6875 C13.8426352,12.4316408 12.2498304,16.1002608 12.2498304,20 C12.2498304,28.2714842 19.3149092,35 28.0001362,35 C36.6853631,35 43.7504419,28.2714842 43.7504419,20 C43.7504419,16.09375 42.1644736,12.4348958 39.4402999,9.690755 C45.2099431,11.8619792 50.19002,15.2962242 53.8985879,18.3919275 C54.4591456,19.6549483 54.3395151,21.1132817 53.5294401,22.2819008 C50.2002743,27.109375 41.0399403,38.3333333 28.0001362,38.3333333 C14.9603321,38.3333333 5.799998,27.109375 2.46741443,22.2819008 C1.66075815,21.1132817 1.5411267,19.6549483 2.09826664,18.3919275 C5.81367014,15.2929692 10.7937479,11.8554692 16.5702268,9.6875 Z M34.0158779,9.90559917 C33.6774922,9.86002583 33.3288531,10.0065108 33.1408609,10.2994792 C32.8947624,10.696615 33.0246482,11.2076825 33.441648,11.4453125 C33.981698,11.7545575 34.4978207,12.1158858 34.9695099,12.5162758 C35.1369934,12.65625 35.3454934,12.7246092 35.5505755,12.7246092 C35.7898384,12.7246092 36.0325191,12.6334633 36.2034204,12.4479167 C36.5247161,12.102865 36.4939532,11.5755208 36.1316419,11.2695317 C35.5779198,10.8007817 34.9763456,10.3808592 34.3440093,10.0162758 C34.2414687,9.9576825 34.1286729,9.921875 34.0158779,9.90559917 Z M19.9574998,11.5071617 C19.7353277,11.5071617 19.509737,11.5885417 19.3388357,11.7513025 C18.9970322,12.0768233 18.9970322,12.6041667 19.3388357,12.9296875 L20.5761639,14.1080733 C20.7470661,14.2708333 20.9692382,14.3522133 21.1948281,14.3522133 C21.4204188,14.3522133 21.6425909,14.2708333 21.8134931,14.1080733 C22.1552966,13.7825525 22.1552966,13.2552083 21.8134931,12.9296875 L20.5761639,11.7513025 C20.4052626,11.5885417 20.1796719,11.5071617 19.9574998,11.5071617 Z M37.9124379,13.9973958 C37.7962252,14.0071617 37.6834294,14.0397133 37.5808888,14.0950525 C37.1536346,14.3164067 36.9964045,14.8209633 37.2288309,15.2246092 C38.7806193,17.9492192 38.9275941,21.1425783 37.6287408,23.984375 C36.5144618,26.4322917 34.4602229,28.3235675 31.8522619,29.30013 C31.4010813,29.4694008 31.1823271,29.9544275 31.3600649,30.384115 C31.4933685,30.7128908 31.8249177,30.9114583 32.1735568,30.9114583 C32.2795161,30.9114583 32.3888932,30.8951825 32.4948525,30.85612 C35.5369033,29.7135417 37.9329466,27.5065108 39.2386356,24.6484375 C40.7494075,21.3346358 40.5750875,17.6106775 38.7635285,14.4303383 C38.5926271,14.1276042 38.2508236,13.9648442 37.9124379,13.9973958 Z M17.5306944,14.9348958 C17.1888909,14.9348958 16.8641783,15.1236983 16.7206203,15.4427083 C16.5326282,15.8658858 16.741129,16.3541667 17.1854731,16.5364583 L18.7987857,17.1875 C18.9115806,17.2298175 19.0243764,17.2526042 19.1405892,17.2526042 C19.4823927,17.2526042 19.8071063,17.0605467 19.9472455,16.7447917 C20.1352376,16.321615 19.9267377,15.8300783 19.4823927,15.6510417 L17.8690801,15 C17.759703,14.9544275 17.6434903,14.9348958 17.5306944,14.9348958 Z M28.0001362,15 C25.1050602,15 22.7500343,17.2428383 22.7500343,20 C22.7500343,22.7571617 25.1050602,25 28.0001362,25 C30.8952121,25 33.2502381,22.7571617 33.2502381,20 C33.2502381,17.2428383 30.8952121,15 28.0001362,15 Z M28.0001362,16.3541667 C30.1124823,16.3541667 31.8283355,17.9882817 31.8283355,20 C31.8283355,22.0117192 30.1124823,23.6458333 28.0001362,23.6458333 C25.8877909,23.6458333 24.1719369,22.0117192 24.1719369,20 C24.1719369,17.9882817 25.8877909,16.3541667 28.0001362,16.3541667 Z M16.6249154,19.1666667 C16.1395548,19.1666667 15.7498984,19.5377608 15.7498984,20 C15.7498984,20.46224 16.1395548,20.8333333 16.6249154,20.8333333 L18.3749493,20.8333333 C18.8603108,20.8333333 19.2499663,20.46224 19.2499663,20 C19.2499663,19.5377608 18.8603108,19.1666667 18.3749493,19.1666667 L16.6249154,19.1666667 Z M19.0893184,22.6009117 C18.9765235,22.5976567 18.8603108,22.6171875 18.7475149,22.659505 L17.1273667,23.284505 C16.6761861,23.4570317 16.4608497,23.9420575 16.6420053,24.371745 C16.7787267,24.6940108 17.1068581,24.8925783 17.4554981,24.8925783 C17.5648752,24.8925783 17.6742524,24.8730467 17.7802117,24.8307292 L19.4037777,24.2057292 C19.8515405,24.0364583 20.0668769,23.5481775 19.8891391,23.121745 C19.7524177,22.8027342 19.431122,22.6074217 19.0893184,22.6009117 Z M21.1914103,25.6477867 C20.9692382,25.6477867 20.7470661,25.7291667 20.5761639,25.8919275 L19.3388357,27.0703125 C18.9970322,27.3958333 18.9970322,27.9231775 19.3388357,28.2486983 C19.509737,28.4114583 19.731909,28.4928383 19.9574998,28.4928383 C20.1830897,28.4928383 20.4052626,28.4114583 20.5761639,28.2486983 L21.8134931,27.0703125 C22.1552966,26.7447917 22.1552966,26.2174483 21.8134931,25.8919275 C21.6425909,25.7291667 21.417001,25.6477867 21.1914103,25.6477867 Z M24.2402976,27.6041667 C23.898494,27.6041667 23.5771992,27.7929692 23.4336413,28.1119792 L22.7500343,29.6484375 C22.5620421,30.071615 22.7671242,30.5598958 23.214887,30.7421875 C23.3242642,30.784505 23.4404778,30.8072917 23.5566905,30.8072917 C23.898494,30.8072917 24.2197898,30.6152342 24.3633468,30.2994792 L25.0469538,28.7630208 C25.234946,28.3398442 25.0264461,27.8515625 24.5821011,27.6692708 C24.4693061,27.6269533 24.3530925,27.6041667 24.2402976,27.6041667 Z M28.0001362,28.3333333 C27.5147756,28.3333333 27.1251192,28.7044275 27.1251192,29.1666667 L27.1251192,30.8333333 C27.1251192,31.2955733 27.5147756,31.6666667 28.0001362,31.6666667 C28.4854976,31.6666667 28.8751531,31.2955733 28.8751531,30.8333333 L28.8751531,29.1666667 C28.8751531,28.7044275 28.4854976,28.3333333 28.0001362,28.3333333 Z" id="Shape"></path>
            </g>
        </g>
    </g>
</svg>