<?xml version="1.0" encoding="UTF-8"?>
<svg width="40px" height="40px" viewBox="0 0 40 40" version="1.1" xmlns="http://www.w3.org/2000/svg" xmlns:xlink="http://www.w3.org/1999/xlink">
    <!-- Generator: Sketch 55.2 (78181) - https://sketchapp.com -->
    <title>icons8-rocket</title>
    <desc>Created with Sketch.</desc>
    <g id="Page-1" stroke="none" stroke-width="1" fill="none" fill-rule="evenodd">
        <g id="F--HOME-nueva-propuesta-Copy" transform="translate(-875.000000, -1830.000000)" fill="#00FFFF" fill-rule="nonzero">
            <g id="icons8-rocket" transform="translate(875.000000, 1830.000000)">
                <path d="M37.7265627,0.53125 C37.5729167,0.518229333 37.4166667,0.523437333 37.2604167,0.546875333 L33.1692707,1.14583333 C28.2421873,1.86718733 23.7421873,4.341146 20.497396,8.11458333 L14.6171873,14.9453127 L4.38802067,17.4895833 C3.70833333,17.658854 3.10937533,18.03125 2.653646,18.565104 L0.46875,21.1354167 C0.127604,21.5364587 0.0520833333,22.0833333 0.273437333,22.559896 C0.494792,23.0364587 0.958333333,23.3333333 1.48437533,23.3333333 L8.276042,23.3333333 C8.307292,23.5989587 8.39322933,23.8541667 8.528646,24.091146 L7.091146,26.7369793 C7.07291667,26.7708333 7.057292,26.807292 7.04427067,26.84375 C6.97916667,27.0416667 6.94531267,27.244792 6.940104,27.4453127 L6.64062533,27.5364587 C4.23437533,28.2734373 2.40625,30.125 1.747396,32.4895833 C1.19791667,34.466146 1.03906267,36.502604 0.994792,37.5442707 C0.981770667,37.9166667 1.122396,38.278646 1.38541667,38.5416667 C1.63281267,38.7890627 1.97395867,38.9296873 2.32291667,38.9296873 C2.34375,38.9296873 2.36197933,38.9296873 2.38020867,38.9270833 C3.41406267,38.8854167 5.44270867,38.7291667 7.41145867,38.184896 C9.76041667,37.533854 11.6666667,35.6380207 12.3828127,33.2395833 L12.4270833,33.088542 C12.463542,33.091146 12.497396,33.096354 12.533854,33.096354 C12.7630207,33.096354 12.994792,33.059896 13.2265627,32.9843753 C13.2604167,32.9739587 13.2916667,32.9583333 13.3229167,32.940104 L15.9765627,31.5416667 C16.1927087,31.6692707 16.4244793,31.752604 16.6666667,31.7916667 L16.6666667,38.5182293 C16.6666667,39.0442707 16.9609373,39.5078127 17.4375,39.7291667 C17.619792,39.8125 17.8125,39.8541667 18.002604,39.8541667 C18.3125,39.8541667 18.6145833,39.744792 18.8619793,39.533854 L21.434896,37.346354 C21.96875,36.8906253 22.338542,36.2916667 22.5104167,35.6119793 L25.0104167,25.5546873 L31.9583333,19.5755207 C35.7317707,16.3307293 38.2057293,11.8281253 38.9270833,6.903646 L39.5234373,2.8125 C39.619792,2.184896 39.4140627,1.5625 38.963542,1.11197933 C38.625,0.773437333 38.1875,0.572916667 37.7265627,0.53125 Z M37.5520833,1.85937533 C37.7265627,1.85937533 37.8932293,1.92708333 38.0208333,2.05208333 C38.1692707,2.20312533 38.2395833,2.41145867 38.2083333,2.622396 L37.6093753,6.71093733 C36.934896,11.3203127 34.619792,15.53125 31.091146,18.5677087 L24.127604,24.559896 C24.03125,24.6093753 23.9453127,24.6770833 23.8828127,24.7708333 L17.4192707,30.3307293 C17.158854,30.557292 16.7604167,30.5416667 16.5130207,30.2968753 L9.778646,23.5625 C9.533854,23.315104 9.51822933,22.9166667 9.74218733,22.65625 L21.5078127,8.98437533 C22.9505207,7.307292 24.658854,5.908854 26.5494793,4.82552067 L29.528646,7.80468733 C29.658854,7.934896 29.8281253,8 30,8 C30.1718753,8 30.341146,7.934896 30.471354,7.80468733 C30.7317707,7.54427067 30.7317707,7.122396 30.471354,6.86197933 L27.783854,4.17447933 C29.533854,3.33333333 31.4114587,2.75 33.3619793,2.463542 L37.4505207,1.86458333 C37.4843753,1.86197933 37.5182293,1.85937533 37.5520833,1.85937533 Z M32,8.66666667 C31.8307293,8.66666667 31.658854,8.73177067 31.528646,8.86197933 C31.2682293,9.122396 31.2682293,9.54427067 31.528646,9.80468733 L33.528646,11.8046873 C33.658854,11.934896 33.8281253,12 34,12 C34.1718753,12 34.341146,11.934896 34.471354,11.8046873 C34.7317707,11.5442707 34.7317707,11.122396 34.471354,10.8619793 L32.471354,8.86197933 C32.341146,8.73177067 32.1692707,8.66666667 32,8.66666667 Z M26.6666667,9.33333333 C24.4609373,9.33333333 22.6666667,11.127604 22.6666667,13.3333333 C22.6666667,15.5390627 24.4609373,17.3333333 26.6666667,17.3333333 C28.872396,17.3333333 30.6666667,15.5390627 30.6666667,13.3333333 C30.6666667,11.127604 28.872396,9.33333333 26.6666667,9.33333333 Z M26.6666667,10.6666667 C28.1380207,10.6666667 29.3333333,11.8619793 29.3333333,13.3333333 C29.3333333,14.8046873 28.1380207,16 26.6666667,16 C25.1953127,16 24,14.8046873 24,13.3333333 C24,11.8619793 25.1953127,10.6666667 26.6666667,10.6666667 Z M13.1145833,16.6927087 L8.73437533,21.783854 C8.67708333,21.8541667 8.63020867,21.9270833 8.58333333,22 L1.48437533,22 L3.67187533,19.4270833 C3.94270867,19.1093753 4.30208333,18.8854167 4.71093733,18.783854 L13.1145833,16.6927087 Z M21.5182293,16.9479167 C21.346354,16.9479167 21.1770833,17.0130207 21.0442707,17.1432293 C20.783854,17.403646 20.783854,17.8255207 21.0442707,18.0859373 L21.9895833,19.028646 C22.1171873,19.158854 22.2890627,19.2239587 22.4583333,19.2239587 C22.6302087,19.2239587 22.8020833,19.158854 22.9296873,19.028646 C23.1927087,18.7682293 23.1927087,18.346354 22.9296873,18.0859373 L21.9895833,17.1432293 C21.8567707,17.0130207 21.6875,16.9479167 21.5182293,16.9479167 Z M19.158854,19.3046873 C18.9895833,19.3046873 18.8177087,19.369792 18.6875,19.5 C18.4270833,19.7604167 18.4270833,20.182292 18.6875,20.4427087 L19.6328127,21.3854167 C19.7604167,21.5156253 19.932292,21.5807293 20.1041667,21.5807293 C20.2734373,21.5807293 20.4453127,21.5156253 20.5729167,21.3854167 C20.8359373,21.125 20.8359373,20.7031253 20.5729167,20.440104 L19.6302087,19.5 C19.5,19.369792 19.3281253,19.3046873 19.158854,19.3046873 Z M16.8020833,21.6640627 C16.6328127,21.6640627 16.4609373,21.7265627 16.3307293,21.8567707 C16.0703127,22.119792 16.0703127,22.5390627 16.3307293,22.8020833 L17.2734373,23.7421873 C17.403646,23.872396 17.5729167,23.9375 17.744792,23.9375 C17.9166667,23.9375 18.0859373,23.872396 18.216146,23.7421873 C18.4765627,23.4817707 18.4765627,23.0625 18.216146,22.8020833 L17.2734373,21.8567707 C17.1432293,21.7265627 16.971354,21.6640627 16.8020833,21.6640627 Z M14.4479167,24.0208333 C14.276042,24.0208333 14.1067707,24.0833333 13.9765627,24.216146 C13.713542,24.4739587 13.713542,24.8958333 13.9765627,25.15625 L14.9166667,26.1015627 C15.0468753,26.2291667 15.216146,26.2942707 15.3880207,26.2942707 C15.559896,26.2942707 15.7291667,26.2291667 15.8593753,26.1015627 C16.119792,25.841146 16.119792,25.4192707 15.8593753,25.15625 L14.9166667,24.216146 C14.7864587,24.0833333 14.6171873,24.0208333 14.4479167,24.0208333 Z M9.47656267,25.1432293 L14.9244793,30.59375 L12.7578127,31.7343753 C12.502604,31.807292 12.2578127,31.7552087 12.0989587,31.596354 L8.47656267,27.9765627 C8.30208333,27.7994793 8.23437533,27.5494793 8.29427067,27.3125 L9.47656267,25.1432293 Z M23.2630207,27.0625 L21.216146,35.2916667 C21.1145833,35.6979167 20.8932293,36.059896 20.5729167,36.3333333 L18,38.5182293 L18,31.5468753 C18.1015627,31.4869793 18.1979167,31.4192707 18.2916667,31.341146 L23.2630207,27.0625 Z M7.35416667,28.7109373 C7.408854,28.783854 7.46875,28.8541667 7.533854,28.9166667 L11.15625,32.5416667 C11.1666667,32.5520833 11.1796873,32.557292 11.190104,32.5703127 L11.1041667,32.8567707 C10.5182293,34.8229167 8.966146,36.369792 7.05468733,36.8984373 C5.216146,37.408854 3.30208333,37.5546873 2.32812533,37.6015627 C2.369792,36.619792 2.51822933,34.6953127 3.03125,32.846354 C3.56770867,30.9244793 5.0625,29.4140627 7.03125,28.8125 L7.35416667,28.7109373 Z" id="Shape"></path>
            </g>
        </g>
    </g>
</svg>