<?xml version="1.0" encoding="UTF-8"?>
<svg width="60px" height="35px" viewBox="0 0 60 35" version="1.1" xmlns="http://www.w3.org/2000/svg" xmlns:xlink="http://www.w3.org/1999/xlink">
    <!-- Generator: Sketch 55.2 (78181) - https://sketchapp.com -->
    <title>view</title>
    <desc>Created with Sketch.</desc>
    <g id="Page-1" stroke="none" stroke-width="1" fill="none" fill-rule="evenodd">
        <g id="F--HOME-nueva-propuesta-Copy" transform="translate(-1029.000000, -1128.000000)" fill="#9B9B9B" fill-rule="nonzero">
            <g id="view" transform="translate(1029.000000, 1128.000000)">
                <path d="M51.062,9.561 C39.173,-2.328 19.83,-2.328 7.941,9.561 L0,17.501 L8.138,25.639 C14.082,31.583 21.89,34.556 29.699,34.556 C37.508,34.556 45.315,31.584 51.26,25.639 L59.201,17.698 L51.062,9.561 Z M49.845,24.225 C38.736,35.333 20.661,35.333 9.552,24.225 L2.828,17.501 L9.355,10.974 C20.464,-0.134 38.539,-0.134 49.648,10.974 L56.372,17.698 L49.845,24.225 Z" id="Shape"></path>
                <path d="M28.572,9.57 C24.712,9.57 21.572,12.71 21.572,16.57 C21.572,17.122 22.02,17.57 22.572,17.57 C23.124,17.57 23.572,17.122 23.572,16.57 C23.572,13.813 25.815,11.57 28.572,11.57 C29.124,11.57 29.572,11.122 29.572,10.57 C29.572,10.018 29.125,9.57 28.572,9.57 Z" id="Path"></path>
                <path d="M29.572,4.57 C22.404,4.57 16.572,10.402 16.572,17.57 C16.572,24.738 22.404,30.57 29.572,30.57 C36.74,30.57 42.572,24.738 42.572,17.57 C42.572,10.402 36.741,4.57 29.572,4.57 Z M29.572,28.57 C23.507,28.57 18.572,23.635 18.572,17.57 C18.572,11.505 23.507,6.57 29.572,6.57 C35.637,6.57 40.572,11.505 40.572,17.57 C40.572,23.635 35.638,28.57 29.572,28.57 Z" id="Shape"></path>
            </g>
        </g>
    </g>
</svg>