<?xml version="1.0" encoding="UTF-8"?>
<svg width="55px" height="50px" viewBox="0 0 55 50" version="1.1" xmlns="http://www.w3.org/2000/svg" xmlns:xlink="http://www.w3.org/1999/xlink">
    <!-- Generator: Sketch 55.2 (78181) - https://sketchapp.com -->
    <title>target</title>
    <desc>Created with Sketch.</desc>
    <g id="Page-1" stroke="none" stroke-width="1" fill="none" fill-rule="evenodd">
        <g id="F--HOME-nueva-propuesta-Copy" transform="translate(-356.000000, -1110.000000)" fill-rule="nonzero">
            <g id="target" transform="translate(356.000000, 1110.000000)">
                <path d="M33.2106573,13.0908955 C33.4495204,13.2525483 33.7625007,13.3333333 34.075481,13.3333333 C34.3884613,13.3333333 34.7015639,13.2525483 34.9403046,13.0908955 C35.4179084,12.7676728 35.4179084,12.2435635 34.9403046,11.9202579 L34.9237934,11.9090838 C34.4461896,11.585861 33.6717498,11.585861 33.1940237,11.9090838 C32.7164199,12.2323066 32.7164199,12.7564158 33.1940237,13.0797214 L33.2106573,13.0908955 Z" id="XMLID_4218_" fill="#000000"></path>
                <path d="M50.9411169,23.0932203 L54.6853023,19.4009534 C54.9925286,19.0979873 55.0843742,18.6422669 54.9180853,18.2465042 C54.7517964,17.8506356 54.3601367,17.5925847 53.9256157,17.5925847 L46.1642861,17.5925847 C45.149795,13.4972458 43.0205884,9.76557203 39.9767928,6.76387712 C35.5539167,2.40211864 29.6731125,0 23.4179435,0 C17.1627745,0 11.2819703,2.40211864 6.85898674,6.76387712 C2.43589581,11.1256356 0,16.9247881 0,23.0932203 C0,29.2616525 2.43589581,35.060911 6.85898674,39.4225636 C8.17425876,40.7195975 9.61918884,41.8418432 11.1638063,42.7806144 L7.92751098,48.4188559 C7.73930806,48.746822 7.74188618,49.1487288 7.93438597,49.4741525 C8.12677834,49.7997881 8.48008851,50 8.86229513,50 L14.3945157,50 C14.7815563,50 15.1387337,49.7947034 15.3294073,49.4625 L17.6177056,45.4757415 C19.490604,45.9442797 21.4353675,46.1864407 23.4179435,46.1864407 C25.4005195,46.1864407 27.345283,45.9442797 29.2181814,45.4757415 L31.5064797,49.4625 C31.6971533,49.7947034 32.0543307,50 32.4413713,50 L37.9735919,50 C38.3557985,50 38.7091086,49.7997881 38.9016084,49.4742585 C39.0941082,49.1487288 39.0966863,48.746822 38.9084834,48.4189619 L35.6721881,42.7807203 C37.2168056,41.8418432 38.6617356,40.7197034 39.9770077,39.4226695 C43.0196216,36.4222458 45.1499025,32.6889831 46.1642861,28.5939619 L53.9257231,28.5939619 C54.3601367,28.5939619 54.7519038,28.3358051 54.9181927,27.9400424 C55.0844816,27.5442797 54.9925286,27.0885593 54.6854098,26.7855932 L50.9411169,23.0932203 Z M48.9769101,22.0338983 L41.4800529,22.0338983 L43.8353824,19.7112288 L51.332347,19.7112288 L48.9769101,22.0338983 Z M13.7681394,47.8813559 L10.7046857,47.8813559 L13.0428277,43.8079449 C13.8452683,44.1996822 14.6690857,44.5461864 15.5119169,44.8434322 L13.7681394,47.8813559 Z M36.1312013,47.8813559 L33.0677475,47.8813559 L31.3239701,44.8434322 C32.1668012,44.5461864 32.9906187,44.1996822 33.7930593,43.8079449 L36.1312013,47.8813559 Z M38.4577417,37.9244703 C37.0387003,39.3238347 35.4537996,40.4998941 33.7477273,41.4373941 C33.7266726,41.4474576 33.7054031,41.4569915 33.6846707,41.4685381 C33.6716727,41.4758475 33.6598563,41.4842161 33.6472879,41.4919492 C32.3385686,42.2019068 30.9594881,42.771928 29.5285228,43.1929025 C29.4722338,43.2039195 29.4165894,43.2202331 29.3616968,43.240572 C27.4545309,43.7848517 25.4584198,44.0677966 23.4179435,44.0677966 C21.3774672,44.0677966 19.381356,43.7848517 17.4741901,43.240678 C17.4191902,43.220339 17.3635457,43.2040254 17.3071493,43.1930085 C15.8762915,42.7720339 14.4972109,42.2020127 13.1885991,41.4920551 C13.1760307,41.484322 13.1642143,41.4759534 13.1512163,41.4686441 C13.1304839,41.4570975 13.1093218,41.4475636 13.0882671,41.4375 C11.3821948,40.5 9.79729412,39.3239407 8.37825268,37.9244703 C4.36089373,33.9629237 2.14843518,28.6957627 2.14843518,23.0932203 C2.14843518,17.490678 4.36089373,12.2235169 8.37814526,8.26197034 C12.3953968,4.30042373 17.7366215,2.11864407 23.4179435,2.11864407 C29.0992655,2.11864407 34.4404902,4.30042373 38.4577417,8.26197034 C41.0974166,10.8650424 42.9800904,14.0717161 43.9467788,17.5925847 L43.3905489,17.5925847 C43.1056664,17.5925847 42.8323854,17.7042373 42.6309696,17.9028602 L39.7798887,20.7144068 C39.4922133,18.7884534 38.8607882,16.9157839 37.9073126,15.2127119 C37.620604,14.7005297 36.96705,14.5147246 36.4476658,14.7973517 C35.9282816,15.0800847 35.7397564,15.7245763 36.026465,16.2367585 C37.0462198,18.0581568 37.6158774,20.0384534 37.7616487,22.0340042 L33.0252085,22.0340042 C32.7860877,19.8882415 31.8245555,17.9004237 30.2542642,16.3519068 C28.4282018,14.5510593 26.0003626,13.559322 23.4179435,13.559322 C20.8355244,13.559322 18.4076852,14.5510593 16.5817302,16.3516949 C14.7556677,18.1525424 13.7499852,20.5466102 13.7499852,23.0932203 C13.7499852,25.6398305 14.7556677,28.0340042 16.5816227,29.8346398 C18.4076852,31.6353814 20.8355244,32.6271186 23.4179435,32.6271186 C26.0003626,32.6271186 28.4282018,31.6353814 30.2541568,29.8347458 C31.8244481,28.2862288 32.7859803,26.298411 33.0251011,24.1525424 L37.7569222,24.1525424 C37.5007213,27.4639831 36.0837208,30.6775424 33.59637,33.1305085 C30.8776327,35.8116525 27.2627831,37.2881356 23.4179435,37.2881356 C19.5731039,37.2881356 15.9582543,35.8116525 13.239517,33.1305085 C10.5206722,30.4494703 9.02342777,26.8848517 9.02342777,23.0932203 C9.02342777,19.301589 10.5206722,15.7369703 13.239517,13.0559322 C17.7492973,8.60868644 24.7940162,7.62330508 30.3709243,10.6596398 C30.8902011,10.9422669 31.543755,10.7564619 31.8305711,10.2442797 C32.1172798,9.73209746 31.9287546,9.08771186 31.4093704,8.80487288 C28.3322741,7.12955508 24.7090456,6.46186441 21.2074185,6.92521186 C17.5889166,7.40381356 14.3082561,9.00572034 11.7203585,11.557839 C8.59578174,14.639089 6.87499258,18.7356992 6.87499258,23.0932203 C6.87499258,27.4507415 8.59578174,31.5474576 11.720251,34.6286017 C14.8448277,37.7098517 18.9991494,39.4067797 23.4179435,39.4067797 C27.8367376,39.4067797 31.9910592,37.7098517 35.1155285,34.6287076 C37.6544418,32.1251059 39.2651237,28.9639831 39.7836485,25.4759534 L42.6308622,28.2836864 C42.832278,28.4823093 43.105559,28.5939619 43.3904415,28.5939619 L43.9467788,28.5939619 C42.9797681,32.1146186 41.0963424,35.3224576 38.4577417,37.9244703 Z M26.9263381,21.0957627 C26.6297467,20.5889831 25.9727552,20.4154661 25.4589569,20.7080508 L22.8808347,22.1758475 C22.5484718,22.3650424 22.3437259,22.7147246 22.3437259,23.0932203 C22.3437259,23.4717161 22.5484718,23.8213983 22.8808347,24.0105932 L25.4589569,25.4783898 C25.6281462,25.5746822 25.8128042,25.6204449 25.9950989,25.6204449 C26.3663485,25.6204449 26.727393,25.4305085 26.9263381,25.090678 C27.1006837,24.7930085 27.1106739,24.446928 26.9859572,24.1525424 L30.8609823,24.1525424 C30.6332482,25.73125 29.8988056,27.1889831 28.7349983,28.3365466 L28.7349983,28.3365466 C27.3147752,29.7371822 25.4265155,30.5084746 23.4179435,30.5084746 C21.4093714,30.5084746 19.5211118,29.7371822 18.1007813,28.3365466 C16.6805582,26.9360169 15.8984204,25.0739407 15.8984204,23.0932203 C15.8984204,21.1125 16.6805582,19.2504237 18.1008887,17.8497881 C19.5211118,16.4492585 21.4093714,15.6779661 23.4179435,15.6779661 C25.4265155,15.6779661 27.3147752,16.4492585 28.7351057,17.8498941 C29.8988056,18.9974576 30.6333556,20.4551907 30.8609823,22.0338983 L26.9860646,22.0338983 C27.1106739,21.7394068 27.1006837,21.3934322 26.9263381,21.0957627 Z M43.8353824,26.4752119 L41.4800529,24.1525424 L48.9769101,24.1525424 L51.332347,26.4752119 L43.8353824,26.4752119 Z" id="XMLID_4221_" fill="#9B9B9B"></path>
            </g>
        </g>
    </g>
</svg>