<?xml version="1.0" encoding="UTF-8"?>
<svg width="25px" height="25px" viewBox="0 0 25 25" version="1.1" xmlns="http://www.w3.org/2000/svg" xmlns:xlink="http://www.w3.org/1999/xlink">
    <!-- Generator: Sketch 55.2 (78181) - https://sketchapp.com -->
    <title>call</title>
    <desc>Created with Sketch.</desc>
    <g id="Page-1" stroke="none" stroke-width="1" fill="none" fill-rule="evenodd">
        <g id="F--HOME-nueva-propuesta-Copy" transform="translate(-462.000000, -5179.000000)" fill="#9B9B9B" fill-rule="nonzero">
            <g id="call" transform="translate(462.000000, 5179.000000)">
                <path d="M17.2569782,13.1096393 C17.2084345,13.1842662 17.2084345,13.258893 17.1841626,13.3583955 C17.1598908,13.6817786 17.4026092,13.9802861 17.7181432,14.0051617 C18.0336772,14.0300373 18.3249393,13.7812811 18.3492112,13.457898 C18.3492112,13.3832711 18.3492112,13.3086443 18.373483,13.1842662 C18.373483,13.0598881 18.373483,12.9852612 18.373483,12.9106343 C18.373483,12.1892413 18.2521238,11.4927239 18.0336772,10.8210821 C17.742415,9.95043532 17.2327063,9.17929104 16.6259102,8.53252488 C15.873483,7.7613806 14.9511529,7.21411692 13.9074636,6.91560945 C13.4220267,6.79123134 12.8880461,6.71660448 12.3783374,6.71660448 C12.2084345,6.71660448 12.0385316,6.71660448 11.8443568,6.7414801 C11.6744539,6.76635572 11.504551,6.79123134 11.3346481,6.81610697 C11.0191141,6.86585821 10.8006675,7.18924129 10.873483,7.48774876 C10.9220267,7.81113184 11.2375607,8.03501244 11.5288228,7.96038557 C11.6744539,7.93550995 11.7958131,7.91063433 11.9414442,7.91063433 C11.965716,7.91063433 11.9899879,7.91063433 12.0142597,7.91063433 C12.1356189,7.91063433 12.2569782,7.88575871 12.3783374,7.88575871 C13.7132888,7.88575871 14.9511529,8.43302239 15.8249393,9.3534204 C16.6987257,10.2489428 17.2327063,11.4678483 17.2569782,12.8360075 L17.2569782,12.8857587 C17.2569782,12.9852612 17.2569782,13.0598881 17.2569782,13.1096393 Z" id="Path"></path>
                <path d="M20.4608617,13.656903 C20.4365898,13.9802861 20.6793083,14.2787935 20.9948422,14.3036692 C21.3103762,14.3285448 21.6016383,14.0797886 21.6259102,13.7564055 C21.650182,13.4827736 21.650182,13.2091418 21.650182,12.93551 C21.650182,12.3882463 21.6016383,11.8658582 21.5288228,11.3434701 C21.2132888,9.3534204 20.2666869,7.56237562 18.9317354,6.19421642 C17.4026092,4.62705224 15.3637743,3.60715174 13.1064927,3.43302239 C12.8637743,3.40814677 12.596784,3.40814677 12.3540655,3.40814677 C12.0870752,3.40814677 11.820085,3.40814677 11.5530947,3.43302239 C11.2861044,3.45789801 11.0191141,3.48277363 10.7521238,3.53252488 C10.4365898,3.58227612 10.2181432,3.9056592 10.2909587,4.20416667 C10.3395024,4.52754975 10.6550364,4.75143035 10.9462985,4.67680348 C11.1162015,4.65192786 11.2618325,4.62705224 11.4317354,4.60217662 C11.504551,4.60217662 11.5773665,4.577301 11.650182,4.577301 C11.8929005,4.55242537 12.1356189,4.55242537 12.3540655,4.55242537 C13.1793083,4.55242537 13.9560073,4.67680348 14.7084345,4.90068408 C16.0191141,5.29869403 17.1841626,6.02008706 18.1307646,6.99023632 C18.9074636,7.78625622 19.5385316,8.75640547 19.9511529,9.80118159 C20.3152306,10.7464552 20.5336772,11.7912313 20.5336772,12.8857587 C20.5336772,12.9603856 20.5336772,13.0598881 20.5336772,13.1345149 C20.4851335,13.3335199 20.4608617,13.4827736 20.4608617,13.656903 Z" id="Path"></path>
                <path d="M21.2861044,3.80615672 C18.9802791,1.44297264 15.8249393,0.000186567164 12.3297937,0.000186567164 C11.965716,0.000186567164 11.6016383,0.0250621891 11.2375607,0.0499378109 C10.873483,0.0748134328 10.5094053,0.124564677 10.1453277,0.199191542 C9.82979369,0.248942786 9.61134709,0.572325871 9.68416262,0.870833333 C9.73270631,1.19421642 10.0482403,1.41809701 10.3395024,1.34347015 C10.5094053,1.31859453 10.6550364,1.29371891 10.8249393,1.26884328 C10.9948422,1.24396766 11.1647451,1.21909204 11.3346481,1.21909204 C11.6744539,1.19421642 11.9899879,1.1693408 12.3297937,1.1693408 C15.4851335,1.1693408 18.3492112,2.48774876 20.4365898,4.60217662 C22.4996966,6.71660448 23.7861044,9.65192786 23.7861044,12.9106343 C23.7861044,13.0847637 23.7861044,13.2837687 23.7861044,13.457898 C23.7861044,13.6071517 23.7618325,13.7564055 23.7618325,13.9305348 C23.7375607,14.2539179 23.9802791,14.5524254 24.2958131,14.577301 C24.6113471,14.6021766 24.9026092,14.3534204 24.9268811,14.0300373 C24.9511529,13.656903 24.9754248,13.2837687 24.9754248,12.93551 C24.9754248,9.37829602 23.5676578,6.14446517 21.2861044,3.80615672 Z" id="Path"></path>
                <path d="M24.0773665,18.8807836 L19.78125,16.5175995 C18.3492112,15.7215796 18.3006675,16.2439677 16.7958131,17.8857587 C16.4317354,18.2837687 15.7521238,19.3285448 14.9511529,19.1295398 C13.2763956,18.7066542 10.1453277,16.1942164 9.12591019,15.0499378 C8.6404733,14.5026741 6.55309466,11.8907338 6.52882282,11.0449627 C6.48027913,9.75143035 9.24726942,9.10466418 8.34921117,6.64197761 L6.43173544,2.23899254 C4.63561893,-1.98986318 -0.388652913,4.77630597 0.0239684466,7.93550995 C1.09192961,15.7215796 14.4171723,28.3086443 21.8443568,24.1544154 C23.4948422,23.2091418 25.7278519,19.9006841 24.0773665,18.8807836 Z" id="Path"></path>
            </g>
        </g>
    </g>
</svg>