<?xml version="1.0" encoding="UTF-8"?>
<svg width="19px" height="27px" viewBox="0 0 19 27" version="1.1" xmlns="http://www.w3.org/2000/svg" xmlns:xlink="http://www.w3.org/1999/xlink">
    <!-- Generator: Sketch 55.2 (78181) - https://sketchapp.com -->
    <title>Shape</title>
    <desc>Created with Sketch.</desc>
    <g id="Page-1" stroke="none" stroke-width="1" fill="none" fill-rule="evenodd">
        <g id="F--HOME-nueva-propuesta-Copy" transform="translate(-188.000000, -5178.000000)" fill="#9B9B9B" fill-rule="nonzero">
            <path d="M197.5,5178 C192.261672,5178 188,5182.38656 188,5187.77834 C188,5194.4697 196.501569,5204.29302 196.863531,5204.70794 C197.203514,5205.0977 197.797101,5205.09701 198.136469,5204.70794 C198.498431,5204.29302 207,5194.4697 207,5187.77834 C207,5182.38656 202.738277,5178 197.5,5178 Z M197.5,5192.69809 C194.864467,5192.69809 192.720362,5190.4911 192.720362,5187.77834 C192.720362,5185.06557 194.864518,5182.85863 197.5,5182.85863 C200.135482,5182.85863 202.279587,5185.06562 202.279587,5187.77839 C202.279587,5190.49115 200.135482,5192.69809 197.5,5192.69809 Z" id="Shape"></path>
        </g>
    </g>
</svg>