<?xml version="1.0" encoding="UTF-8"?>
<svg width="40px" height="40px" viewBox="0 0 40 40" version="1.1" xmlns="http://www.w3.org/2000/svg" xmlns:xlink="http://www.w3.org/1999/xlink">
    <!-- Generator: Sketch 55.2 (78181) - https://sketchapp.com -->
    <title>icons8-delete_link</title>
    <desc>Created with Sketch.</desc>
    <g id="Page-1" stroke="none" stroke-width="1" fill="none" fill-rule="evenodd">
        <g id="F--HOME-nueva-propuesta-Copy" transform="translate(-272.000000, -1830.000000)" fill="#00FFFF" fill-rule="nonzero">
            <g id="icons8-delete_link" transform="translate(272.000000, 1830.000000)">
                <path d="M27.8919492,0.302083333 C25.9817797,0.302083333 24.0707627,1.0166146 22.6165254,2.4466146 L18.7870766,6.21354133 C16.3802963,8.580208 15.9666841,12.1806247 17.5463451,14.9739587 L15.2277546,17.253906 C12.3870759,15.7005727 8.72563593,16.107292 6.31885559,18.4739587 L2.48808264,22.2395833 C1.07791315,23.62625 0.297934305,25.4670833 0.297934305,27.4270833 C0.297934305,29.3870833 1.07791315,31.2266147 2.48808264,32.6132813 L3.44412075,33.5533853 C4.89496814,34.9867187 6.80635593,35.7005207 8.71822034,35.7005207 C10.6233051,35.7005207 12.5360169,34.9867187 13.9936441,33.5533853 L17.8230929,29.7864587 C20.2298725,27.419792 20.6434854,23.8193747 19.0638244,21.0260413 L21.3824149,18.746094 C22.5078393,19.366094 23.7629769,19.6731773 25.0172142,19.6731773 C26.9290786,19.6731773 28.8336861,18.9593753 30.2913139,17.5260413 L34.1220868,13.7604167 C35.5322563,12.37375 36.3122353,10.5329167 36.3122353,8.57291667 C36.3122353,6.61291667 35.5322563,4.77338533 34.1220868,3.38671873 L33.1660488,2.4466146 C31.7118115,1.0166146 29.8021186,0.302083333 27.8919492,0.302083333 Z M27.8945973,1.6315104 C29.4573092,1.6315104 31.0201803,2.21671873 32.2100108,3.38671873 L33.1660488,4.32682293 C34.3185912,5.460156 34.9563031,6.96625 34.9563031,8.57291667 C34.9563031,10.1729167 34.3185912,11.6804687 33.1660488,12.813802 L29.3286549,16.5872393 C28.1761125,17.7205727 26.6443329,18.339844 25.0172142,18.339844 C24.0951803,18.339844 23.1995234,18.1405727 22.3927437,17.753906 L24.5418434,15.6406253 C24.6977756,15.6606253 24.8545024,15.6731773 25.0172142,15.6731773 C25.9256888,15.6731773 26.7726698,15.3271873 27.409958,14.7005207 L31.2473519,10.9270833 C31.8914197,10.3004167 32.2444386,9.45958333 32.2444386,8.57291667 C32.2444386,7.67958333 31.8914197,6.84687533 31.2473519,6.21354133 L30.2913139,5.27343733 C28.9692793,3.97343753 26.8131356,3.97343753 25.4978814,5.27343733 L21.6604875,9.04036467 C21.0231993,9.673698 20.6713451,10.506406 20.6713451,11.3997393 C20.6713451,11.5597393 20.6841105,11.713854 20.7044488,11.8671873 L18.5553498,13.9804687 C18.1621295,13.1871353 17.9594807,12.306406 17.9594807,11.3997393 C17.9594807,9.79973933 18.5892481,8.29348933 19.7417905,7.160156 L23.5791844,3.38671873 C24.7690149,2.21671873 26.3318854,1.6315104 27.8945973,1.6315104 Z M14.7431146,4.18229167 C14.6560698,4.17032293 14.5652969,4.17441667 14.4756353,4.19791667 C14.113602,4.29325 13.8986651,4.65832293 13.9962922,5.01432267 L14.3485166,6.30338533 C14.4298732,6.60138533 14.7029871,6.79687467 15.0026481,6.79687467 C15.0609532,6.79687467 15.1204556,6.78943733 15.1787607,6.77343733 C15.5407946,6.678104 15.7557308,6.31303133 15.6581037,5.95703133 L15.3058793,4.66927067 C15.232659,4.4022708 15.0042481,4.21819793 14.7431146,4.18229167 Z M11.2976692,5.51302067 C11.2103919,5.52375 11.1227858,5.55148933 11.0421078,5.597656 C10.717362,5.781656 10.6066949,6.189146 10.7944915,6.50781267 L11.4724576,7.66276067 C11.5985593,7.87676067 11.8258054,7.996094 12.060381,7.996094 C12.1756359,7.996094 12.2915993,7.96691667 12.39804,7.90625 C12.7227858,7.72225 12.8347776,7.31476067 12.646981,6.996094 L11.9690149,5.841146 C11.8281675,5.601646 11.5595024,5.48083333 11.2976692,5.51302067 Z M27.8919492,5.628906 C28.4122881,5.628906 28.9320447,5.82354133 29.3286549,6.21354133 L30.2913139,7.160156 C30.6709749,7.53348933 30.8885064,8.03958333 30.8885064,8.57291667 C30.8885064,9.10625 30.6709749,9.60697933 30.2913139,9.98697933 L26.4539193,13.7604167 C26.3047668,13.9070833 26.1286549,14.026458 25.9388244,14.119792 C26.1693329,13.7264587 26.2910488,13.2804687 26.2910488,12.813802 C26.2910488,12.1004687 26.0063559,11.43375 25.4978814,10.9270833 C24.9826271,10.4270833 24.3046081,10.1471353 23.5791844,10.1471353 C23.1046081,10.1471353 22.651059,10.2668227 22.251059,10.4934893 C22.3391953,10.3068227 22.4673729,10.1403127 22.6165254,9.98697933 L26.4539193,6.21354133 C26.8505295,5.82354133 27.3716102,5.628906 27.8919492,5.628906 Z M8.57388746,7.627604 C8.40049763,7.627604 8.22708678,7.69258333 8.09454441,7.82291667 C7.82945966,8.08358333 7.82945966,8.504958 8.09454441,8.76562533 L9.05323119,9.70833333 C9.18543458,9.83833333 9.35901492,9.903646 9.53257424,9.903646 C9.70613356,9.903646 9.8797139,9.83833333 10.0119173,9.70833333 C10.277002,9.44766667 10.277002,9.026292 10.0119173,8.76562533 L9.05323119,7.82291667 C8.92068881,7.69258333 8.74727729,7.627604 8.57388746,7.627604 Z M6.50291322,10.3932293 C6.24063525,10.3611353 5.97190644,10.481854 5.83156746,10.721354 C5.64377085,11.0400207 5.75576271,11.448146 6.08050847,11.6328127 L7.2537078,12.2994793 C7.36014847,12.360146 7.47743661,12.3880207 7.59269085,12.3880207 C7.82726712,12.3880207 8.05519051,12.2686873 8.18061424,12.0546873 C8.36773288,11.735354 8.25574169,11.3285313 7.9316739,11.1445313 L6.75847458,10.4778647 C6.67728814,10.4318647 6.59033898,10.4039273 6.50291322,10.3932293 Z M23.5791844,11.4804687 C23.9385064,11.4804687 24.2775953,11.6203647 24.5352224,11.873698 C24.7928495,12.1270313 24.9351166,12.4604687 24.9351166,12.813802 C24.9351166,13.173802 24.7928495,13.5070833 24.5352224,13.7604167 L24.1419492,14.1471353 L23.1528075,15.119792 L21.2063031,17.033854 L20.2502651,17.9739587 L18.2852224,19.90625 L17.3225634,20.8528647 L15.3760597,22.7669273 L14.3869173,23.7395833 L13.9936441,24.126302 C13.7360169,24.3796353 13.3835275,24.5065107 13.0309851,24.5065107 C12.6784427,24.5065107 12.3257946,24.3796353 12.0749471,24.126302 C11.81732,23.8729687 11.6750529,23.5395313 11.6750529,23.186198 C11.6750529,22.826198 11.81732,22.4929167 12.0749471,22.2395833 L12.4682203,21.8528647 L13.457362,20.880208 L15.4038664,18.966146 L16.3665254,18.0195313 L18.3249471,16.09375 L19.2876061,15.1471353 L21.2341098,13.2330727 L22.2232522,12.2604167 L22.6165254,11.873698 C22.8741525,11.6203647 23.2130827,11.4804687 23.5791844,11.4804687 Z M4.97219254,13.6106773 C4.71070976,13.6465833 4.48213986,13.830656 4.40942793,14.097656 C4.31247885,14.453656 4.52741525,14.8187293 4.88877153,14.9140627 L6.19835797,15.2604167 C6.25734102,15.27575 6.31616542,15.283854 6.37447051,15.283854 C6.67345356,15.283854 6.94792407,15.0870627 7.02860203,14.7890627 C7.12555119,14.4337293 6.91061424,14.0666873 6.54925831,13.971354 L5.23967186,13.626302 C5.14967186,13.602802 5.0593539,13.598708 4.97219254,13.6106773 Z M11.5929553,17.660156 C12.5149892,17.660156 13.4106461,17.8594273 14.2174258,18.246094 L12.0683261,20.3593747 C11.9123939,20.3393747 11.7556671,20.3268227 11.5929553,20.3268227 C10.6844807,20.3268227 9.83749966,20.6728127 9.20021153,21.2994793 L5.36281763,25.0729167 C4.71875003,25.6995833 4.36573092,26.5404167 4.36573092,27.4270833 C4.36573092,28.3204167 4.71874997,29.1531253 5.36281763,29.7864587 L6.31885559,30.7265627 C6.98326305,31.379896 7.85042373,31.7005207 8.71822034,31.7005207 C9.58601695,31.7005207 10.454661,31.379896 11.1122881,30.7265627 L14.949682,26.9596353 C15.5869702,26.326302 15.9388244,25.493594 15.9388244,24.6002607 C15.9388244,24.4402607 15.9260597,24.286146 15.9057207,24.1328127 L18.0548197,22.0195313 C18.44804,22.8128647 18.6506888,23.693594 18.6506888,24.6002607 C18.6506888,26.2002607 18.0209214,27.7065107 16.868379,28.839844 L13.0309851,32.6132813 C10.6513241,34.9532813 6.77981966,34.9532813 4.40015892,32.6132813 L3.44412075,31.6731773 C2.29157837,30.539844 1.65386651,29.03375 1.65386651,27.4270833 C1.65386651,25.8270833 2.29157837,24.3195313 3.44412075,23.186198 L7.28151458,19.4127607 C8.43405695,18.2794273 9.96583661,17.660156 11.5929553,17.660156 Z M10.6713451,21.880208 C10.4408366,22.273542 10.3191207,22.7195313 10.3191207,23.186198 C10.3191207,23.8995313 10.6038136,24.56625 11.1122881,25.0729167 C11.6275424,25.5729167 12.3055614,25.8528647 13.0309851,25.8528647 C13.5055614,25.8528647 13.9591105,25.7331773 14.3591105,25.5065107 C14.2709749,25.6931773 14.1427966,25.8596873 13.9936441,26.0130207 L10.1562502,29.7864587 C9.36302983,30.5664587 8.07473492,30.5664587 7.28151458,29.7864587 L6.31885559,28.839844 C5.93919458,28.4665107 5.72166305,27.9604167 5.72166305,27.4270833 C5.72166305,26.89375 5.93919525,26.3930207 6.31885559,26.0130207 L10.1562502,22.2395833 C10.3054027,22.0929167 10.4815146,21.9735413 10.6713451,21.880208 Z M31.1864407,22 C26.3267797,22 22.3728814,25.888 22.3728814,30.6666667 C22.3728814,35.4453333 26.3267797,39.3333333 31.1864407,39.3333333 C36.0461017,39.3333333 40,35.4453333 40,30.6666667 C40,25.888 36.0461017,22 31.1864407,22 Z M31.1864407,23.3333333 C35.2983051,23.3333333 38.6440678,26.6233333 38.6440678,30.6666667 C38.6440678,34.71 35.2983051,38 31.1864407,38 C27.0745763,38 23.7288136,34.71 23.7288136,30.6666667 C23.7288136,26.6233333 27.0745763,23.3333333 31.1864407,23.3333333 Z M28.3090569,27.1705727 C28.1355824,27.1705727 27.9632414,27.236854 27.831038,27.3671873 C27.5659532,27.627854 27.5659532,28.0492293 27.831038,28.309896 L30.2277546,30.6666667 L27.831038,33.0234373 C27.5659532,33.284104 27.5659532,33.7054793 27.831038,33.966146 C28.0961227,34.2268127 28.525318,34.2268127 28.7897247,33.966146 L31.1864407,31.6093747 L33.5831566,33.966146 C33.8482414,34.2268127 34.2774366,34.2268127 34.5418434,33.966146 C34.8069281,33.706146 34.8069281,33.284104 34.5418434,33.0234373 L32.1451268,30.6666667 L34.5418434,28.309896 C34.8062502,28.049896 34.8069281,27.627854 34.5418434,27.3671873 C34.2767586,27.1065207 33.8475634,27.1065207 33.5831566,27.3671873 L31.1864407,29.7239587 L28.7897247,27.3671873 C28.6571824,27.236854 28.4825315,27.1705727 28.3090569,27.1705727 Z" id="Shape"></path>
            </g>
        </g>
    </g>
</svg>