<?xml version="1.0" encoding="UTF-8"?>
<svg width="40px" height="40px" viewBox="0 0 40 40" version="1.1" xmlns="http://www.w3.org/2000/svg" xmlns:xlink="http://www.w3.org/1999/xlink">
    <!-- Generator: Sketch 55.2 (78181) - https://sketchapp.com -->
    <title>icons8-idea</title>
    <desc>Created with Sketch.</desc>
    <g id="Page-1" stroke="none" stroke-width="1" fill="none" fill-rule="evenodd">
        <g id="F--HOME-nueva-propuesta-Copy" transform="translate(-590.000000, -1830.000000)" fill="#00FFFF" fill-rule="nonzero">
            <g id="icons8-idea" transform="translate(590.000000, 1830.000000)">
                <path d="M20,0 C13.2409277,0 7.74193548,5.98136 7.74193548,13.3333333 C7.74193548,16.8229165 9.53629032,19.4298246 11.2726813,21.9517544 C12.6587703,23.9665572 13.9642135,25.8854168 14.1935484,28.0701754 L14.1935484,32.9824561 C14.1935484,35.4523025 15.8795361,37.4972589 18.0645161,37.8399123 L18.0645161,38.5964912 C18.0645161,39.3695179 18.6441535,40 19.3548387,40 L20.6451613,40 C21.3558471,40 21.9354839,39.3695179 21.9354839,38.5964912 L21.9354839,37.8399123 C24.1204639,37.4972589 25.8064516,35.4523025 25.8064516,32.9824561 L25.8064516,28.7006582 C25.8165323,26.2472589 27.2404232,24.1611846 28.75,21.9517544 C30.4763103,19.4298246 32.2580645,16.8229165 32.2580645,13.3333333 C32.2580645,5.98136 26.7590729,0 20,0 Z M20,1.40350877 C26.0483871,1.40350877 30.9677419,6.75438596 30.9677419,13.3333333 C30.9677419,16.3596491 29.3145161,18.7774126 27.7167342,21.11568 C26.2701613,23.2319081 24.7782258,25.4111846 24.546371,28.0263158 L20.6451613,28.0263158 L20.6451613,25.9649123 C20.6451613,25.5783993 20.3553426,25.2631579 20,25.2631579 C19.6446574,25.2631579 19.3548387,25.5783993 19.3548387,25.9649123 L19.3548387,28.0290568 L15.5015123,28.0290568 C15.2671374,25.4139256 13.7626006,23.229167 12.3059477,21.1101972 C10.6955645,18.7719298 9.03225806,16.3569081 9.03225806,13.3333333 C9.03225806,6.75438596 13.9516129,1.40350877 20,1.40350877 Z M19.9117942,3.50603088 C18.1880039,3.52247789 16.5045361,4.07346526 15.0403226,5.12061404 C14.7429439,5.33168842 14.6622987,5.76754386 14.858871,6.09100912 C14.9823587,6.2966007 15.1864923,6.40624982 15.3956652,6.40624982 C15.5191535,6.40624982 15.6401213,6.37061404 15.7510084,6.2911186 C17.4218748,5.09594316 19.4304439,4.65734667 21.4087703,5.05208351 C21.7615929,5.12061404 22.0967742,4.86842105 22.1597781,4.48739018 C22.2253026,4.10636 21.9934477,3.74177614 21.6431452,3.67324561 C21.0660284,3.55537263 20.4889116,3.50054807 19.9117942,3.50603088 Z M24.4254032,4.8245614 C24.1784277,4.78618456 23.918851,4.90953965 23.7802419,5.15624982 C23.5962703,5.49068 23.6945568,5.92105263 24.0020161,6.12116211 C24.5337703,6.4720393 25.0302419,6.89418877 25.4737903,7.37938596 C25.5997987,7.51644772 25.766129,7.58497825 25.9299394,7.58497825 C26.0962703,7.58497825 26.2626006,7.51644772 26.388609,7.37938596 C26.6406252,7.10526316 26.6406252,6.66118456 26.388609,6.38706175 C25.8669355,5.82236842 25.2898187,5.32894737 24.6673387,4.92050456 C24.5917342,4.87116211 24.5085684,4.83826737 24.4254032,4.8245614 Z M3.24092774,5.27138175 C2.98891161,5.27686386 2.75201613,5.44133754 2.65120968,5.70997825 C2.52016129,6.0690793 2.67893161,6.48026316 3.0090729,6.62280702 L5.40322581,7.6754386 C5.48135097,7.71107439 5.56199613,7.72752211 5.64264129,7.72752211 C5.89717742,7.72752211 6.1416329,7.56030737 6.24243935,7.28892561 C6.37600839,6.92708351 6.21471806,6.5186407 5.88457677,6.37335509 L3.49294387,5.32072351 C3.40977806,5.28508772 3.3240929,5.2686407 3.24092774,5.27138175 Z M36.7590729,5.27138175 C36.6759071,5.2686407 36.5902219,5.28508772 36.5070568,5.32072351 L34.1154232,6.37335509 C33.7852826,6.5186407 33.6239923,6.92708351 33.7575606,7.28892561 C33.8583671,7.56030737 34.1028226,7.72752211 34.3573587,7.72752211 C34.4380039,7.72752211 34.518649,7.71107439 34.5967742,7.6754386 L36.9909277,6.62280702 C37.3210684,6.48026316 37.4798387,6.0690793 37.3487903,5.70997825 C37.2479839,5.44133754 37.011089,5.27686386 36.7590729,5.27138175 Z M0.64516129,12.6315789 C0.28981871,12.6315789 0,12.9468204 0,13.3333333 C0,13.7198463 0.28981871,14.0350877 0.64516129,14.0350877 L4.51612903,14.0350877 C4.87147161,14.0350877 5.16129032,13.7198463 5.16129032,13.3333333 C5.16129032,12.9468204 4.87147161,12.6315789 4.51612903,12.6315789 L0.64516129,12.6315789 Z M35.483871,12.6315789 C35.1285284,12.6315789 34.8387097,12.9468204 34.8387097,13.3333333 C34.8387097,13.7198463 35.1285284,14.0350877 35.483871,14.0350877 L39.3548387,14.0350877 C39.7101813,14.0350877 40,13.7198463 40,13.3333333 C40,12.9468204 39.7101813,12.6315789 39.3548387,12.6315789 L35.483871,12.6315789 Z M17.4193548,15.4385965 C17.2555445,15.4385965 17.0892135,15.507127 16.9632058,15.6441888 C16.7111897,15.9183116 16.7111897,16.3623902 16.9632058,16.636513 L18.2535284,18.0400218 C18.3795361,18.1770835 18.5433471,18.245614 18.7096774,18.245614 C18.8760084,18.245614 19.0398187,18.1770835 19.1658265,18.0400218 C19.4178426,17.7658989 19.4178426,17.3218204 19.1658265,17.0476975 L17.8755039,15.6441888 C17.7494961,15.507127 17.5831652,15.4385965 17.4193548,15.4385965 Z M22.5806452,15.4385965 C22.4168348,15.4385965 22.2505039,15.507127 22.1244961,15.6441888 L19.543851,18.4512063 C19.4228832,18.5827853 19.3548387,18.7609649 19.3548387,18.9473684 L19.3548387,23.1578947 C19.3548387,23.5444077 19.6446574,23.8596491 20,23.8596491 C20.3553426,23.8596491 20.6451613,23.5444077 20.6451613,23.1578947 L20.6451613,19.2379389 L23.0367942,16.636513 C23.2888103,16.3623902 23.2888103,15.9183116 23.0367942,15.6441888 C22.9107865,15.507127 22.7444555,15.4385965 22.5806452,15.4385965 Z M5.65524194,18.9391446 C5.56955677,18.9391446 5.48387097,18.9555923 5.40322581,18.9912281 L3.0090729,20.0438596 C2.67893161,20.1864035 2.52016129,20.5975881 2.65120968,20.9566884 C2.75453613,21.2308112 2.99647161,21.3952849 3.25100839,21.3952849 C3.33165355,21.3952849 3.41481871,21.3788379 3.49294387,21.3459432 L5.88457677,20.2933116 C6.21471806,20.1480267 6.37600839,19.7395832 6.24243935,19.3777411 C6.1416329,19.1091011 5.90473806,18.9446274 5.65524194,18.9391446 Z M34.3447581,18.9418863 C34.0952619,18.9473684 33.8583671,19.1118421 33.7575606,19.3804828 C33.6239923,19.7395832 33.7852826,20.1507677 34.1154232,20.2960526 L36.5070568,21.3459432 C36.5851813,21.3815789 36.6683471,21.3952849 36.7489923,21.3952849 C37.0035284,21.3952849 37.2454639,21.2308112 37.3487903,20.9566884 C37.4798387,20.5975881 37.3210684,20.1891446 36.9909277,20.0438596 L34.5967742,18.9912281 C34.516129,18.9555923 34.4304439,18.9391446 34.3447581,18.9418863 Z M15.483871,29.4736842 L24.516129,29.4736842 L24.516129,30.2576758 L15.483871,31.485746 L15.483871,29.4736842 Z M24.516129,31.6721495 L24.516129,32.9824561 C24.516129,33.0098688 24.5085684,33.0372807 24.5085684,33.0674344 L17.956149,33.9583333 C17.6033265,34.004934 17.353831,34.3558112 17.3991935,34.7395832 C17.4395161,35.0959432 17.7167342,35.3536182 18.0367942,35.3536182 C18.0645161,35.3536182 18.0897181,35.3536182 18.1174394,35.3481361 L24.1733871,34.5257677 C23.6466735,35.6853074 22.5579639,36.4912281 21.2903226,36.4912281 L18.7096774,36.4912281 C16.9304439,36.4912281 15.483871,34.9177635 15.483871,32.9824561 L15.483871,32.9002196 L24.516129,31.6721495 Z M19.3548387,37.8947368 L20.6451613,37.8947368 L20.6451613,38.5964912 L19.3548387,38.5964912 L19.3548387,37.8947368 Z" id="Shape"></path>
            </g>
        </g>
    </g>
</svg>